<svg xmlns="http://www.w3.org/2000/svg" width="39" height="40" viewBox="0 0 39 40">
    <defs>
        <linearGradient id="a" x1="50%" x2="59.323%" y1="67.951%" y2="-3.085%">
            <stop offset="0%" stop-color="#5BAFC8"/>
            <stop offset="100%" stop-color="#536696"/>
        </linearGradient>
    </defs>
    <g fill="none" fill-rule="evenodd">
        <path fill="#536696" fill-rule="nonzero" d="M23.273.69a.831.831 0 0 1 .038 0 2.114 2.114 0 0 1 1.463.608l5.451 5.371c.153.15.197.196.27.284.242.292.36.614.36 1.02v6.356a.815.815 0 0 1-1.629 0V8.787h-5.93a.815.815 0 0 1-.814-.814l-.006-5.654H2.115a.485.485 0 0 0-.485.485v34.77c0 .27.217.487.485.487h26.624c.27 0 .487-.217.487-.486v-1.808a.815.815 0 0 1 1.63 0v1.808a2.115 2.115 0 0 1-2.117 2.114H2.115A2.114 2.114 0 0 1 0 37.575V2.804C0 1.636.947.69 2.115.69h21.158zM28.4 7.158l-4.294-4.231.004 4.231h4.29zM17.14 16.942h19.337A2.524 2.524 0 0 1 39 19.467v11.304a2.524 2.524 0 0 1-2.524 2.524H17.139a2.525 2.525 0 0 1-2.526-2.524V19.467a2.525 2.525 0 0 1 2.526-2.525zm0 1.63a.896.896 0 0 0-.896.895v11.304c0 .494.4.895.896.895h19.337c.494 0 .894-.4.894-.895V19.467c0-.495-.4-.896-.894-.896H17.139z"/>
        <text fill="#567BA4" font-family="Montserrat-Bold, Montserrat" font-size="8" font-weight="bold" letter-spacing=".128" transform="translate(0 .69)">
            <tspan x="19" y="28">JPG</tspan>
        </text>
        <path fill="url(#a)" fill-rule="nonzero" d="M21.16 12.743H4.84c-1.12 0-1.12-1.649 0-1.649h16.32c1.12 0 1.12 1.649 0 1.649zm-7.253-4.784H4.84c-1.12 0-1.12-1.648 0-1.648h9.067c1.12 0 1.12 1.648 0 1.648z" transform="rotate(-180 13 9.871)"/>
    </g>
</svg>
