<svg xmlns="http://www.w3.org/2000/svg" width="65" height="15" viewBox="0 0 65 15">
    <g fill="#3E4D73" fill-rule="evenodd">
        <path d="M4.47 2.092a6.024 6.024 0 0 0-2.214 2.173 5.768 5.768 0 0 0-.82 3.015c0 1.094.272 2.105.82 3.035a6.051 6.051 0 0 0 2.215 2.205c.929.54 1.94.81 3.034.81 1.08 0 2.081-.27 3.005-.81a6.086 6.086 0 0 0 2.204-2.205c.547-.93.82-1.941.82-3.035 0-1.336-.408-2.54-1.224-3.61a6.03 6.03 0 0 0-1.424-1.344 5.934 5.934 0 0 0-3.38-1.034 5.992 5.992 0 0 0-3.035.8M11.248.994a7.389 7.389 0 0 1 2.717 2.636 6.92 6.92 0 0 1 1.005 3.65c0 1.326-.335 2.55-1.005 3.67a7.418 7.418 0 0 1-2.717 2.667c-1.142.656-2.396.984-3.763.984s-2.622-.328-3.763-.984a7.407 7.407 0 0 1-2.717-2.666A7.018 7.018 0 0 1 0 7.28C0 5.953.335 4.736 1.005 3.63A7.378 7.378 0 0 1 3.722.994C4.863.346 6.118.021 7.485.021s2.621.325 3.763.973M26.228 8.572c1.367 0 2.42-.31 3.158-.933.738-.622 1.107-1.52 1.107-2.697 0-1.149-.369-2.023-1.107-2.625-.738-.601-1.791-.902-3.158-.902h-3.937v7.157h3.937zm3.903 5.607l-2.898-4.377c-.438.028-.772.04-1.005.04h-3.937v3.967c0 .37-.299.669-.67.669h-.076c-.37 0-.669-.3-.669-.67V.145h5.352c1.791 0 3.175.413 4.153 1.24.977.828 1.466 2 1.466 3.517 0 1.19-.287 2.181-.861 2.973-.574.794-1.395 1.347-2.46 1.661l2.711 3.891a.67.67 0 1 1-1.106.753zM47.298 12.478c.678-.485 1.016-1.165 1.016-2.04 0-.861-.342-1.531-1.025-2.01-.684-.478-1.634-.717-2.85-.717h-4.533v5.496h4.533c1.229 0 2.184-.243 2.86-.729m-.503-6.685c.56-.444.84-1.076.84-1.897 0-.793-.28-1.408-.84-1.846-.56-.437-1.346-.65-2.357-.635h-4.533V6.46h4.533c1.01 0 1.797-.222 2.357-.667m1.077-4.717c.814.636 1.22 1.514 1.22 2.636 0 .847-.236 1.558-.708 2.133-.472.573-1.13.95-1.978 1.128 1.053.136 1.873.525 2.46 1.168.588.643.882 1.456.882 2.44 0 1.23-.458 2.188-1.374 2.872-.915.683-2.187 1.025-3.813 1.025h-6.07V.123H44.5c1.436 0 2.56.318 3.373.953M62.053 1.63a7.224 7.224 0 0 0-1.969-.297c-.984 0-1.773.194-2.367.584-.595.39-.893.92-.893 1.59 0 .588.164 1.066.492 1.435.329.37.731.66 1.21.872.479.212 1.135.447 1.969.707.97.287 1.753.571 2.348.851s1.1.687 1.517 1.22c.417.534.626 1.238.626 2.112 0 .766-.216 1.443-.646 2.03-.43.589-1.036 1.043-1.815 1.365-.78.32-1.675.481-2.687.481a7.517 7.517 0 0 1-2.922-.594 8.062 8.062 0 0 1-2.037-1.212.658.658 0 0 1-.153-.83.655.655 0 0 1 .974-.199 7.16 7.16 0 0 0 1.657.97c.848.355 1.681.533 2.502.533 1.093 0 1.962-.223 2.604-.667.642-.444.964-1.043.964-1.795 0-.6-.164-1.093-.492-1.476a3.27 3.27 0 0 0-1.21-.882c-.478-.205-1.149-.444-2.009-.718-.971-.3-1.75-.584-2.338-.85a3.942 3.942 0 0 1-1.497-1.19c-.41-.526-.615-1.213-.615-2.06 0-.725.205-1.361.615-1.908.41-.547.984-.967 1.722-1.261.738-.294 1.593-.44 2.563-.44.78 0 1.562.115 2.348.348a8.7 8.7 0 0 1 1.503.592c.327.167.46.562.295.89l-.02.038a.662.662 0 0 1-.895.283 7.617 7.617 0 0 0-1.344-.522"/>
    </g>
</svg>
