<svg xmlns="http://www.w3.org/2000/svg" width="40" height="40" viewBox="0 0 40 40">
    <defs>
        <linearGradient id="a" x1="50%" x2="50%" y1="0%" y2="100%">
            <stop offset="0%" stop-color="#5FC4D7"/>
            <stop offset="100%" stop-color="#536696"/>
        </linearGradient>
    </defs>
    <g fill="none" fill-rule="nonzero">
        <path fill="url(#a)" d="M5.646 1.01a.825.825 0 0 1 1.65 0v37.843a.825.825 0 1 1-1.65 0V1.011zm18.285 22.564c0 .328-.06.605-.183.83a1.503 1.503 0 0 1-.493.545 2.176 2.176 0 0 1-.716.303c-.27.063-.551.095-.843.095h-.676v1.443a.68.68 0 0 1-1.36 0v-4.14a.81.81 0 0 1 .81-.81h1.258c.308 0 .595.03.863.091s.501.16.7.295c.199.135.355.312.47.532.113.22.17.492.17.816zm-1.36.007a.606.606 0 0 0-.08-.326.554.554 0 0 0-.214-.198.921.921 0 0 0-.306-.096 2.559 2.559 0 0 0-.354-.024h-.597v1.328h.573c.127 0 .25-.01.366-.031a.982.982 0 0 0 .314-.112.596.596 0 0 0 .219-.21.627.627 0 0 0 .08-.33zm7.606 1.058c0 .493-.091.919-.274 1.277a2.573 2.573 0 0 1-.724.882c-.3.231-.637.4-1.014.51a4.109 4.109 0 0 1-1.145.162h-2.1v-5.63h2.037c.397 0 .79.046 1.177.139.387.093.731.247 1.033.461.303.215.546.503.732.863.186.36.278.806.278 1.336zm-1.415 0c0-.318-.052-.582-.155-.791a1.332 1.332 0 0 0-.414-.501 1.654 1.654 0 0 0-.588-.267 2.892 2.892 0 0 0-.68-.08h-.676v3.293h.644c.244 0 .478-.027.704-.083.225-.056.424-.147.596-.275a1.36 1.36 0 0 0 .414-.508c.103-.213.155-.475.155-.788zm3.828-1.638v1.161h2.18v1.121h-2.18v2.187h-1.344v-5.63h3.706V23H32.59z"/>
        <path fill="#536696" d="M23.75.186a.841.841 0 0 1 .039 0 2.14 2.14 0 0 1 1.48.616l5.519 5.439c.154.152.199.198.273.287.245.296.365.622.365 1.033v6.437a.825.825 0 1 1-1.65 0V8.386h-6.002a.825.825 0 0 1-.825-.824l-.006-5.727H2.334a.491.491 0 0 0-.491.492v35.21c0 .271.22.491.491.491h26.95c.273 0 .493-.22.493-.492v-1.83a.825.825 0 0 1 1.649 0v1.83a2.141 2.141 0 0 1-2.142 2.142H2.334a2.14 2.14 0 0 1-2.14-2.142V2.326a2.14 2.14 0 0 1 2.14-2.14h21.417zm5.19 6.55l-4.346-4.285.004 4.285h4.343zm8.175 9.908A2.556 2.556 0 0 1 39.67 19.2v11.446a2.556 2.556 0 0 1-2.555 2.557H17.54a2.557 2.557 0 0 1-2.556-2.557V19.2a2.557 2.557 0 0 1 2.556-2.556h19.574zm0 1.65H17.54a.907.907 0 0 0-.907.906v11.446c0 .501.406.908.907.908h19.574c.5 0 .905-.406.905-.908V19.2a.906.906 0 0 0-.905-.907z"/>
    </g>
</svg>
