<svg xmlns="http://www.w3.org/2000/svg" width="24" height="21" viewBox="0 0 24 21">
    <g fill="#777" fill-rule="nonzero">
        <path d="M22.145 1.503H9.992c-.307 0-.596-.12-.814-.337L8.555.543A1.842 1.842 0 0 0 7.245 0h-5.39A1.857 1.857 0 0 0 0 1.855v17.29C0 20.168.832 21 1.855 21h20.29A1.857 1.857 0 0 0 24 19.145V3.358a1.857 1.857 0 0 0-1.855-1.855zm1.152 2.282a1.845 1.845 0 0 0-1.152-.402h-.375a.352.352 0 0 0 0 .703h.375c.635 0 1.152.517 1.152 1.152v13.907c0 .635-.517 1.152-1.152 1.152H1.855a1.153 1.153 0 0 1-1.152-1.152V5.238c0-.635.517-1.152 1.152-1.152h18.412a.352.352 0 0 0 0-.703H1.855c-.435 0-.835.15-1.152.402v-1.93c0-.635.517-1.152 1.152-1.152h5.39c.307 0 .596.12.813.338l.623.622c.35.35.816.544 1.311.544h12.153c.635 0 1.152.516 1.152 1.151v.427z"/>
        <path d="M9.694 12.767l1.898-1.883v5.213c0 .225.181.405.408.405.227 0 .408-.18.408-.405v-5.213l1.898 1.883c.078.078.184.12.287.12a.395.395 0 0 0 .287-.12.401.401 0 0 0 0-.573l-2.593-2.572a.414.414 0 0 0-.287-.12.397.397 0 0 0-.287.12L9.12 12.194a.401.401 0 0 0 0 .573.41.41 0 0 0 .574 0z"/>
    </g>
</svg>
